<svg width="36" height="36" viewBox="0 0 36 36" fill="none" xmlns="http://www.w3.org/2000/svg">
<rect width="36" height="36" rx="18" fill="#252525"/>
<g clip-path="url(#clip0_44_2732)">
<path d="M26 18.0486C26 13.6306 22.418 10.0486 18 10.0486C13.582 10.0486 10 13.6306 10 18.0486C10 22.0419 12.9253 25.3513 16.75 25.9513V20.3613H14.7187V18.0479H16.75V16.2866C16.75 14.2819 17.9447 13.1739 19.772 13.1739C20.6467 13.1739 21.5627 13.3306 21.5627 13.3306V15.2993H20.5533C19.5593 15.2993 19.2493 15.9159 19.2493 16.5486V18.0486H21.468L21.1133 20.3619H19.2493V25.9519C23.0747 25.3513 26 22.0413 26 18.0486Z" fill="#9CA3AF"/>
</g>
<defs>
<clipPath id="clip0_44_2732">
<rect width="16" height="16" fill="white" transform="translate(10 10)"/>
</clipPath>
</defs>
</svg>
