<svg width="36" height="36" viewBox="0 0 36 36" fill="none" xmlns="http://www.w3.org/2000/svg">
<rect width="36" height="36" rx="18" fill="#252525"/>
<path d="M21.3334 11.3333H14.6667C12.8258 11.3333 11.3334 12.8256 11.3334 14.6666V21.3333C11.3334 23.1742 12.8258 24.6666 14.6667 24.6666H21.3334C23.1743 24.6666 24.6667 23.1742 24.6667 21.3333V14.6666C24.6667 12.8256 23.1743 11.3333 21.3334 11.3333Z" stroke="#9CA3AF" stroke-width="1.33333" stroke-linecap="round" stroke-linejoin="round"/>
<path d="M20.6667 17.58C20.7489 18.1348 20.6542 18.7014 20.3958 19.1993C20.1375 19.6972 19.7288 20.1009 19.2278 20.3531C18.7267 20.6052 18.159 20.693 17.6052 20.6039C17.0514 20.5148 16.5398 20.2533 16.1432 19.8567C15.7466 19.4601 15.4852 18.9485 15.3961 18.3948C15.3069 17.841 15.3947 17.2732 15.6469 16.7722C15.8991 16.2712 16.3028 15.8625 16.8007 15.6041C17.2985 15.3458 17.8652 15.251 18.42 15.3333C18.986 15.4172 19.5099 15.6809 19.9145 16.0855C20.319 16.4901 20.5828 17.014 20.6667 17.58Z" stroke="#9CA3AF" stroke-width="1.33333" stroke-linecap="round" stroke-linejoin="round"/>
<path d="M21.6666 14.3333H21.6733" stroke="#9CA3AF" stroke-width="1.33333" stroke-linecap="round" stroke-linejoin="round"/>
</svg>
