<svg width="36" height="36" viewBox="0 0 36 36" fill="none" xmlns="http://www.w3.org/2000/svg">
<rect width="36" height="36" rx="18" fill="#252525"/>
<path d="M23.06 14.4599C22.3954 14.3138 21.7942 13.9609 21.3427 13.4518C20.8912 12.9428 20.6125 12.3038 20.5466 11.6266V11.3333H18.2466V20.4466C18.1835 20.9101 17.9539 21.3349 17.6006 21.6416C17.2473 21.9483 16.7945 22.1159 16.3266 22.1133C15.8157 22.1133 15.3256 21.9103 14.9643 21.5489C14.603 21.1876 14.4 20.6976 14.4 20.1866C14.4 19.6756 14.603 19.1855 14.9643 18.8242C15.3256 18.4629 15.8157 18.2599 16.3266 18.2599C16.5133 18.2599 16.6866 18.2866 16.8533 18.3266V15.9933C16.6786 15.9712 16.5027 15.9601 16.3266 15.9599C15.2148 15.9598 14.1478 16.3978 13.3566 17.179C12.5655 17.9601 12.114 19.0215 12.1 20.1333C12.1 21.2542 12.5453 22.3293 13.3379 23.122C14.1306 23.9146 15.2057 24.3599 16.3266 24.3599C17.4476 24.3599 18.5227 23.9146 19.3153 23.122C20.108 22.3293 20.5533 21.2542 20.5533 20.1333V15.9866C21.4795 16.6471 22.5891 17.0014 23.7266 16.9999V14.7199C23.4955 14.6583 23.2718 14.5711 23.06 14.4599Z" fill="#9CA3AF"/>
</svg>
